M48
;DRILL file {kicad (2015-01-16 BZR 5376)-product} date 1/7/2016 1:02:57 PM
;FORMAT={-:-/ absolute / metric / decimal}
FMAT,2
METRIC,TZ
T1C0.810
T2C0.813
T3C0.968
T4C0.998
T5C1.000
T6C1.016
T7C1.100
T8C1.143
T9C1.298
T10C1.397
T11C1.524
T12C2.301
T13C2.984
T14C3.000
T15C3.048
%
G90
G05
M71
T1
X179.385Y-33.845
X179.385Y-49.085
X181.925Y-33.845
X181.925Y-49.085
X184.465Y-33.845
X184.465Y-49.085
X187.005Y-33.845
X187.005Y-49.085
X189.545Y-33.845
X189.545Y-49.085
X192.085Y-33.845
X192.085Y-49.085
X194.625Y-33.845
X194.625Y-49.085
X197.165Y-33.845
X197.165Y-49.085
X199.705Y-33.845
X199.705Y-49.085
X202.245Y-33.845
X202.245Y-49.085
X204.785Y-33.845
X204.785Y-49.085
X207.325Y-33.845
X207.325Y-49.085
X209.865Y-33.845
X209.865Y-49.085
X212.405Y-33.845
X212.405Y-49.085
X214.945Y-33.845
X214.945Y-49.085
X217.485Y-33.845
X217.485Y-49.085
X220.025Y-33.845
X220.025Y-49.085
X222.565Y-33.845
X222.565Y-49.085
X225.105Y-33.845
X225.105Y-49.085
X227.645Y-33.845
X227.645Y-49.085
T2
X61.275Y-105.6
X61.315Y-97.805
X61.91Y-113.22
X61.91Y-120.84
X61.91Y-124.65
X62.926Y-41.592
X63.18Y-85.28
X63.18Y-87.82
X63.815Y-93.535
X63.815Y-103.06
X63.942Y-109.918
X64.45Y-113.22
X64.45Y-120.84
X64.45Y-124.65
X65.466Y-41.592
X66.315Y-97.805
X66.355Y-105.6
X66.388Y-52.514
X66.388Y-55.054
X66.99Y-88.074
X66.99Y-113.22
X66.99Y-120.84
X68.26Y-124.65
X68.387Y-52.514
X68.387Y-55.054
X68.768Y-41.592
X68.895Y-84.645
X68.895Y-94.805
X69.53Y-113.22
X69.53Y-120.84
X70.292Y-69.278
X70.8Y-124.65
X71.816Y-64.706
X72.364Y-80.16
X72.578Y-87.82
X72.578Y-90.36
X72.578Y-92.9
X72.578Y-95.44
X72.578Y-97.98
X72.578Y-100.52
X72.578Y-103.06
X72.578Y-105.6
X73.086Y-62.674
X73.406Y-44.45
X73.975Y-112.585
X73.975Y-122.745
X74.864Y-76.39
X75.946Y-44.45
X76.134Y-161.48
X76.515Y-112.585
X76.515Y-122.745
X77.364Y-80.16
X78.674Y-161.48
X78.928Y-41.592
X80.325Y-89.09
X80.325Y-91.63
X80.325Y-94.17
X80.325Y-96.71
X80.325Y-99.25
X80.325Y-101.79
X80.325Y-104.33
X80.325Y-106.87
X80.325Y-109.41
X80.325Y-111.95
X80.325Y-114.49
X80.325Y-117.03
X80.325Y-119.57
X80.325Y-122.11
X81.468Y-77.66
X81.534Y-64.77
X82.804Y-131.826
X84.008Y-77.66
X84.074Y-64.77
X84.77Y-144.97
X84.77Y-147.51
X86.548Y-77.66
X86.548Y-169.354
X86.548Y-171.894
X87.31Y-144.97
X90.358Y-77.66
X91.12Y-142.176
X91.12Y-144.716
X91.12Y-147.256
X91.12Y-149.796
X92.39Y-131.254
X92.39Y-134.048
X92.39Y-136.842
X92.644Y-153.606
X92.644Y-156.146
X92.898Y-77.66
X94.93Y-131.254
X94.93Y-134.048
X94.93Y-136.842
X95.438Y-77.66
X95.565Y-89.09
X95.565Y-91.63
X95.565Y-94.17
X95.565Y-96.71
X95.565Y-99.25
X95.565Y-101.79
X95.565Y-104.33
X95.565Y-106.87
X95.565Y-109.41
X95.565Y-111.95
X95.565Y-114.49
X95.565Y-117.03
X95.565Y-119.57
X95.565Y-122.11
X97.47Y-131.254
X97.47Y-134.048
X97.47Y-136.842
X97.978Y-77.66
X100.01Y-131.254
X100.01Y-134.048
X100.01Y-136.842
X100.518Y-77.66
X101.28Y-142.176
X101.28Y-144.716
X101.28Y-147.256
X101.28Y-149.796
X102.55Y-131.254
X102.55Y-134.048
X102.55Y-136.842
X102.804Y-153.606
X102.804Y-156.146
X103.058Y-77.66
X104.328Y-87.566
X104.328Y-90.106
X104.328Y-92.646
X104.328Y-95.186
X104.328Y-97.726
X104.328Y-100.266
X104.328Y-102.806
X104.328Y-106.87
X104.328Y-109.41
X104.328Y-111.95
X104.328Y-114.49
X104.328Y-117.03
X104.328Y-119.57
X104.328Y-122.11
X104.328Y-124.65
X105.598Y-77.66
X107.884Y-105.6
X108.138Y-77.66
X109.408Y-109.41
X109.408Y-111.95
X109.408Y-114.49
X109.408Y-117.03
X109.408Y-119.57
X109.408Y-122.11
X109.408Y-124.65
X109.408Y-127.19
X109.408Y-134.302
X109.408Y-136.842
X109.408Y-139.382
X109.408Y-141.922
X109.408Y-144.462
X109.408Y-147.002
X109.408Y-149.542
X109.408Y-152.082
X110.932Y-159.956
X110.932Y-169.1
X114.996Y-75.12
X116.012Y-159.956
X116.012Y-169.1
X119.314Y-129.73
X119.314Y-132.27
X119.314Y-134.81
X119.314Y-137.35
X119.314Y-139.89
X119.314Y-142.43
X119.314Y-144.97
X119.314Y-147.51
X119.314Y-150.05
X122.616Y-161.734
X124.775Y-35.75
X125.156Y-168.338
X125.156Y-170.878
X130.744Y-169.1
X134.935Y-35.75
X135.824Y-169.1
X141.92Y-168.338
X141.92Y-170.878
X148.016Y-109.41
X148.016Y-111.95
X148.016Y-114.49
X148.016Y-117.03
X148.016Y-119.57
X148.016Y-122.11
X148.016Y-124.65
X148.016Y-127.19
X148.016Y-129.73
X148.016Y-137.35
X148.016Y-139.89
X148.016Y-142.43
X148.016Y-144.97
X148.016Y-147.51
X148.016Y-150.05
X148.016Y-152.59
X148.016Y-155.13
X148.016Y-157.67
X158.176Y-109.41
X158.176Y-111.95
X158.176Y-114.49
X158.176Y-117.03
X158.176Y-119.57
X158.176Y-122.11
X158.176Y-124.65
X158.176Y-127.19
X158.176Y-134.302
X158.176Y-136.842
X158.176Y-139.382
X158.176Y-141.922
X158.176Y-144.462
X158.176Y-147.002
X158.176Y-149.542
X158.176Y-152.082
X163.256Y-111.188
X163.256Y-113.728
X163.256Y-116.268
X163.256Y-142.684
X163.256Y-151.32
X163.256Y-159.956
X163.256Y-169.1
X164.272Y-80.2
X168.336Y-71.056
X168.336Y-142.684
X168.336Y-151.32
X168.336Y-159.956
X168.336Y-169.1
X169.098Y-120.078
X169.098Y-127.698
X169.86Y-33.21
X169.86Y-35.75
X169.86Y-38.29
X169.86Y-40.83
X169.86Y-43.37
X169.86Y-45.91
X169.86Y-48.45
X169.86Y-50.99
X169.86Y-54.8
X169.86Y-57.34
X169.86Y-59.88
X169.86Y-62.42
X171.638Y-76.39
X171.638Y-120.078
X171.638Y-127.698
X172.146Y-134.048
X173.416Y-142.684
X173.416Y-151.32
X173.416Y-159.956
X173.416Y-169.1
X174.178Y-76.39
X174.178Y-78.93
X174.178Y-120.078
X174.178Y-127.698
X174.686Y-134.048
X175.575Y-52.26
X175.575Y-62.42
X176.718Y-120.078
X176.718Y-127.698
X177.226Y-134.048
X178.115Y-62.42
X178.115Y-113.22
X178.115Y-115.76
X178.496Y-71.056
X178.496Y-142.684
X178.496Y-151.32
X178.496Y-159.956
X178.496Y-169.1
X179.766Y-134.048
X182.306Y-134.048
X182.56Y-56.705
X182.56Y-59.245
X183.195Y-120.205
X183.195Y-127.825
X183.576Y-142.684
X183.576Y-151.32
X183.576Y-159.956
X183.576Y-169.1
X184.846Y-134.048
X185.1Y-56.705
X185.735Y-120.205
X185.735Y-127.825
X187.132Y-78.422
X187.132Y-80.962
X187.386Y-134.048
X188.275Y-62.42
X188.275Y-120.205
X188.275Y-127.825
X188.656Y-142.684
X188.656Y-151.32
X188.656Y-159.956
X188.656Y-169.1
X189.418Y-72.072
X189.418Y-88.328
X189.672Y-66.484
X189.672Y-93.408
X189.926Y-134.048
X190.815Y-52.26
X190.815Y-62.42
X190.815Y-120.205
X190.815Y-127.825
X191.958Y-72.072
X191.958Y-88.328
X192.72Y-42.1
X193.355Y-62.42
X193.736Y-142.684
X193.736Y-151.32
X193.736Y-159.956
X193.736Y-169.1
X194.625Y-118.935
X194.625Y-129.095
X195.26Y-75.12
X195.26Y-85.28
X196.022Y-71.31
X196.022Y-89.09
X196.53Y-56.07
X196.53Y-58.61
X196.784Y-44.132
X197.165Y-118.935
X197.165Y-129.095
X198.562Y-71.31
X198.562Y-73.85
X198.562Y-82.486
X198.562Y-86.55
X198.562Y-89.09
X198.816Y-142.684
X198.816Y-151.32
X198.816Y-159.956
X198.816Y-169.1
X199.07Y-56.07
X199.832Y-66.484
X199.832Y-93.408
X203.515Y-62.42
X204.404Y-107.886
X204.404Y-110.426
X204.404Y-112.966
X204.404Y-115.506
X204.404Y-118.046
X204.404Y-120.586
X204.404Y-123.126
X204.404Y-125.666
X204.912Y-144.97
X204.912Y-147.51
X204.912Y-150.05
X204.912Y-152.59
X205.928Y-41.592
X206.055Y-52.26
X206.055Y-62.42
X208.468Y-44.132
X208.595Y-62.42
X209.992Y-105.346
X209.992Y-107.886
X209.992Y-110.426
X209.992Y-112.966
X209.992Y-115.506
X209.992Y-118.046
X209.992Y-120.586
X209.992Y-123.126
X209.992Y-125.666
X212.405Y-56.07
X212.405Y-58.61
X214.31Y-140.398
X214.31Y-142.938
X214.31Y-145.478
X214.31Y-148.018
X214.31Y-150.558
X214.31Y-153.098
X214.31Y-155.638
X214.31Y-158.178
X214.945Y-56.07
X217.104Y-42.1
X218.755Y-62.42
X219.644Y-44.64
X221.168Y-52.26
X221.168Y-62.42
X221.93Y-140.398
X221.93Y-142.938
X221.93Y-145.478
X221.93Y-148.018
X221.93Y-150.558
X221.93Y-153.098
X221.93Y-155.638
X221.93Y-158.178
X223.835Y-62.42
X226.756Y-108.14
X226.756Y-118.3
X226.756Y-123.126
X226.756Y-125.666
X226.756Y-128.206
X226.756Y-130.746
X226.756Y-133.286
X226.756Y-135.826
X226.756Y-138.366
X226.756Y-140.906
X227.645Y-56.705
X227.645Y-59.245
X230.185Y-56.705
X231.582Y-112.712
X231.582Y-120.332
X231.582Y-127.952
X231.582Y-135.572
X231.582Y-143.192
X231.582Y-150.812
X231.582Y-158.432
X231.73Y-105.
X233.995Y-62.42
X234.122Y-112.712
X234.122Y-120.332
X234.122Y-127.952
X234.122Y-135.572
X234.122Y-143.192
X234.122Y-150.812
X234.122Y-158.432
X234.27Y-105.
T3
X214.31Y-107.886
X214.31Y-110.426
X214.31Y-112.966
X214.31Y-115.506
X214.31Y-118.046
X214.31Y-120.586
X214.31Y-123.126
X214.31Y-125.666
X221.93Y-107.886
X221.93Y-110.426
X221.93Y-112.966
X221.93Y-115.506
X221.93Y-118.046
X221.93Y-120.586
X221.93Y-123.126
X221.93Y-125.666
T4
X64.45Y-67.5
X64.45Y-70.04
X64.45Y-72.58
X64.45Y-75.12
X64.45Y-77.66
X66.99Y-67.5
X66.99Y-70.04
X66.99Y-72.58
X66.99Y-75.12
X66.99Y-77.66
X80.54Y-35.
X83.08Y-35.
X85.62Y-35.
X88.16Y-35.
X90.7Y-35.
X93.24Y-35.
X95.78Y-35.
X98.32Y-35.
X100.86Y-35.
X103.4Y-35.
X105.94Y-35.
X108.48Y-35.
X111.02Y-35.
X113.56Y-35.
X116.1Y-35.
X118.64Y-35.
T5
X169.606Y-88.328
X177.226Y-88.328
T6
X65.212Y-149.288
X70.292Y-149.288
X91.186Y-139.7
X101.346Y-139.7
X126.172Y-109.41
X126.172Y-111.95
X126.172Y-114.49
X126.172Y-117.03
X126.172Y-119.57
X126.172Y-122.11
X126.172Y-124.65
X126.172Y-127.19
X126.172Y-129.73
X126.172Y-132.27
X126.172Y-134.81
X126.172Y-137.35
X126.172Y-139.89
X126.172Y-142.43
X126.172Y-144.97
X126.172Y-147.51
X126.172Y-150.05
X126.172Y-152.59
X126.172Y-155.13
X126.172Y-157.67
X141.412Y-109.41
X141.412Y-111.95
X141.412Y-114.49
X141.412Y-117.03
X141.412Y-119.57
X141.412Y-122.11
X141.412Y-124.65
X141.412Y-127.19
X141.412Y-129.73
X141.412Y-132.27
X141.412Y-134.81
X141.412Y-137.35
X141.412Y-139.89
X141.412Y-142.43
X141.412Y-144.97
X141.412Y-147.51
X141.412Y-150.05
X141.412Y-152.59
X141.412Y-155.13
X141.412Y-157.67
X203.388Y-65.976
X203.388Y-76.136
X203.388Y-83.248
X203.388Y-93.408
T7
X73.589Y-169.608
X76.388Y-169.608
X79.182Y-169.608
X81.073Y-155.892
X84.844Y-160.023
X85.024Y-151.941
X88.975Y-155.892
T8
X75.88Y-132.524
X75.88Y-135.064
X75.88Y-137.604
T9
X178.435Y-106.235
X198.435Y-106.235
T10
X91.755Y-164.655
X91.755Y-169.735
X104.455Y-164.655
X104.455Y-169.735
T11
X205.42Y-169.1
X207.071Y-72.072
X207.071Y-87.82
X209.073Y-66.073
X209.073Y-78.071
X209.073Y-81.821
X209.073Y-93.819
X210.5Y-169.1
X216.088Y-169.1
X221.071Y-66.073
X221.071Y-78.071
X221.071Y-81.821
X221.071Y-93.819
X221.168Y-169.1
X229.296Y-66.992
X229.296Y-72.072
X229.296Y-77.152
X229.296Y-82.74
X229.296Y-87.82
X229.296Y-92.9
T12
X63.688Y-47.785
X63.688Y-59.783
T13
X69.88Y-139.564
T14
X69.88Y-130.564
T15
X64.Y-35.
X64.Y-170.
X75.057Y-34.989
X150.051Y-34.989
X150.051Y-65.977
X151.Y-100.
X233.Y-35.
X233.Y-170.
T6
X64.704Y-159.194G85X64.704Y-160.718
G05
X66.228Y-165.036G85X67.752Y-165.036
G05
X70.8Y-159.194G85X70.8Y-160.718
G05
T0
M30
